<svg xmlns="http://www.w3.org/2000/svg" width="512" height="512" viewBox="0 0 512 512" version="1.1"><path d="" stroke="none" fill="#00FFFF" fill-rule="evenodd"/><path d="M 77.909 89.554 C 69.494 92.146, 64.395 97.877, 57.393 112.612 C 53.095 121.657, 50.551 125.884, 49.193 126.239 C 46.400 126.970, 32.307 148.689, 24.114 164.889 C 7.742 197.260, 1.119 223.557, 0.286 259.500 C -0.457 291.513, 2.760 311.618, 13.581 342.597 C 20.139 361.373, 23.320 368.452, 31.508 382.500 C 44.528 404.835, 55.168 414.262, 75 421.032 C 82.934 423.741, 101.044 424.782, 111.597 423.136 C 122.542 421.429, 132.141 418.178, 132.714 415.984 C 133.264 413.884, 138.576 412.464, 168 406.556 C 202.106 399.708, 214.219 398.585, 254.500 398.540 C 293.833 398.496, 304.647 399.359, 337 405.120 C 362.878 409.728, 378.709 413.781, 379.275 415.943 C 380.289 419.821, 398.795 423.980, 415.090 423.992 C 435.947 424.009, 453.887 416.124, 467.886 400.786 C 472.930 395.260, 483.292 378.283, 489.423 365.500 C 498.361 346.866, 508.935 309.834, 510.617 291.274 C 510.979 287.273, 511.664 284, 512.138 284 C 512.612 284, 512.955 274.887, 512.900 263.750 C 512.845 252.613, 512.479 244.625, 512.086 246 C 511.570 247.808, 511.189 246.390, 510.709 240.877 C 508.454 214.926, 497.073 180.649, 481.970 154.323 C 471.187 135.527, 463.721 125.636, 460.974 126.508 C 459.695 126.914, 458.668 125.486, 456.490 120.267 C 448.648 101.482, 444.279 95.464, 435.500 91.358 C 426.201 87.009, 421.300 87.759, 395.762 97.438 C 383.518 102.079, 371.475 106.371, 369 106.974 C 365.834 107.746, 331.450 107.987, 253 107.786 L 141.500 107.500 116.134 97.750 C 89.199 87.397, 86.670 86.855, 77.909 89.554 M 377.766 119.918 C 374.962 122.423, 374.500 123.496, 374.500 127.500 C 374.500 131.504, 374.962 132.577, 377.766 135.082 C 380.211 137.267, 382.028 138, 385 138 C 387.972 138, 389.789 137.267, 392.234 135.082 C 395.038 132.577, 395.500 131.504, 395.500 127.500 C 395.500 123.496, 395.038 122.423, 392.234 119.918 C 389.789 117.733, 387.972 117, 385 117 C 382.028 117, 380.211 117.733, 377.766 119.918 M 121.766 121.918 C 118.962 124.423, 118.500 125.496, 118.500 129.500 C 118.500 133.504, 118.962 134.577, 121.766 137.082 C 124.211 139.267, 126.028 140, 129 140 C 131.972 140, 133.789 139.267, 136.234 137.082 C 139.038 134.577, 139.500 133.504, 139.500 129.500 C 139.500 125.496, 139.038 124.423, 136.234 121.918 C 133.789 119.733, 131.972 119, 129 119 C 126.028 119, 124.211 119.733, 121.766 121.918 M 380.695 121.111 C 375.939 123.878, 377.149 133.246, 382.434 134.573 C 388.330 136.053, 392.382 132.727, 392.206 126.550 C 392.056 121.275, 385.631 118.239, 380.695 121.111 M 124.695 123.111 C 119.939 125.878, 121.149 135.246, 126.434 136.573 C 132.330 138.053, 136.382 134.727, 136.206 128.550 C 136.056 123.275, 129.631 120.239, 124.695 123.111 M 157.174 128.314 L 155 130.629 155 196.180 C 155 260.981, 155.024 261.760, 157.073 264.365 L 159.145 267 256.073 267 C 351.667 267, 353.028 266.972, 355 265 C 356.960 263.040, 357 261.667, 357 196.057 L 357 129.113 354.777 127.557 C 352.803 126.174, 341.767 126, 255.952 126 L 159.349 126 157.174 128.314 M 165.672 133.661 C 165.302 134.031, 165 162.383, 165 196.667 L 165 259 256.008 259 L 347.015 259 346.758 196.250 L 346.500 133.500 256.422 133.245 C 206.879 133.104, 166.042 133.292, 165.672 133.661 M 75.243 145.190 C 75.561 146.020, 72.984 151.471, 69.389 157.572 C 58.453 176.134, 58.039 178.011, 59.474 202.500 C 60.295 216.504, 61.436 220.300, 65.783 223.500 C 68.214 225.290, 70.363 225.533, 86.214 225.813 C 101.863 226.089, 104.428 225.904, 108.218 224.228 C 112.954 222.133, 112.890 222.233, 121.482 203.285 C 131.313 181.604, 133.547 164.958, 127.791 156.261 C 122.846 148.788, 111.276 145.258, 88.587 144.297 C 76.547 143.788, 74.751 143.908, 75.243 145.190 M 406 145.611 C 391.799 147.963, 385.407 151.322, 381.844 158.306 C 380.011 161.899, 379.808 163.569, 380.303 170.972 C 381.133 183.398, 383.448 190.212, 396.168 217.667 C 399.560 224.990, 401.015 225.455, 421.683 225.828 C 442.179 226.199, 445.306 225.477, 448.984 219.526 C 450.635 216.855, 451 214.543, 451 206.768 C 451 201.546, 451.437 194.971, 451.970 192.158 C 453.830 182.350, 450.134 170.892, 440.025 155.134 C 437.056 150.505, 435.041 146.335, 435.366 145.490 C 435.851 144.224, 434.329 144.015, 425.219 144.102 C 419.323 144.158, 410.675 144.837, 406 145.611 M 385.186 233.497 C 381.407 236.676, 380.572 240.040, 382.447 244.528 C 385.241 251.215, 393.781 252.425, 398.511 246.805 C 401.360 243.418, 401.654 240.166, 399.490 235.980 C 396.617 230.425, 390.167 229.306, 385.186 233.497 M 386.039 236.189 C 383.283 239.146, 383.474 242.565, 386.566 245.657 C 388.644 247.735, 389.736 248.103, 392.303 247.589 C 396.495 246.751, 398.333 244.761, 398.333 241.061 C 398.333 234.571, 390.455 231.449, 386.039 236.189 M 102.741 239.453 C 97.858 241.165, 95.991 242.780, 94.345 246.718 C 92.555 250.999, 92.649 254.458, 94.670 258.717 C 98.957 267.750, 112.183 268.631, 118.386 260.297 C 126.061 249.985, 114.945 235.176, 102.741 239.453 M 101.831 244.530 C 97.895 246.667, 96.413 251.961, 98.512 256.385 C 100.448 260.464, 105.708 263.362, 109.465 262.420 C 112.734 261.599, 117 256.532, 117 253.470 C 117 245.443, 108.920 240.680, 101.831 244.530 M 0.422 265 C 0.422 276.275, 0.568 280.887, 0.746 275.250 C 0.924 269.613, 0.924 260.387, 0.746 254.750 C 0.568 249.113, 0.422 253.725, 0.422 265 M 408.299 246.503 C 404.900 248.884, 403.603 254.114, 405.366 258.334 C 407.100 262.483, 409.548 264, 414.511 264 C 419.005 264, 424 259.539, 424 255.527 C 424 252.131, 421.507 247.342, 419.055 246.030 C 416.252 244.529, 410.773 244.770, 408.299 246.503 M 412 247.719 C 408.885 248.844, 407 251.400, 407 254.500 C 407 258.607, 409.678 261, 414.272 261 C 418.241 261, 421 258.289, 421 254.388 C 421 250.249, 415.756 246.363, 412 247.719 M 384.923 258.923 C 382.787 261.059, 382 262.805, 382 265.407 C 382 273.881, 392.626 278.465, 398.545 272.545 C 404.306 266.785, 399.713 256, 391.500 256 C 388.795 256, 387.087 256.759, 384.923 258.923 M 386.039 261.189 C 383.283 264.146, 383.474 267.565, 386.566 270.657 C 388.644 272.735, 389.736 273.103, 392.303 272.589 C 396.495 271.751, 398.333 269.761, 398.333 266.061 C 398.333 259.571, 390.455 256.449, 386.039 261.189 M 63.538 277.453 C 59.087 279.090, 56.457 281.974, 55.104 286.701 C 54.066 290.328, 54.852 294.463, 57.821 301 C 60.645 307.221, 66.557 328.585, 70.116 345.432 C 72.349 356.007, 73.883 360.821, 76.293 364.820 C 83.082 376.081, 95.484 381.512, 108.503 378.925 C 113.425 377.946, 115.207 377.927, 116.309 378.841 C 117.452 379.790, 120.249 378.714, 130.352 373.440 C 137.291 369.819, 143.876 365.702, 144.984 364.293 C 148.663 359.616, 147.097 348.562, 141.769 341.608 C 140.412 339.837, 140.010 340.212, 135.477 347.485 C 130.434 355.576, 127.155 358.004, 121.282 357.996 C 115.274 357.988, 112.448 354.869, 105.020 340.040 C 101.159 332.333, 98 325.076, 98 323.914 C 98 320.584, 100.923 315.284, 103.836 313.333 C 105.740 312.058, 108.270 311.581, 112.704 311.659 L 118.909 311.769 115.882 306.635 C 114.218 303.811, 112.163 299.925, 111.316 298 C 105.148 283.976, 102.765 279.926, 99.706 278.269 C 95.274 275.869, 69.433 275.286, 63.538 277.453 M 412.984 277.866 C 410.698 279.089, 408.813 281.239, 407.502 284.116 C 406.403 286.527, 402.951 293.563, 399.831 299.750 L 394.159 311 402.129 311 C 414.099 311, 419 314.638, 419 323.522 C 419 328.023, 406.834 352.483, 403.783 354.116 C 399.673 356.316, 395.956 356.880, 392.722 355.797 C 388.104 354.249, 386.803 352.868, 380.914 343.265 L 375.648 334.678 372.327 338.589 C 368.492 343.106, 365 351.589, 365 356.390 C 365 362.476, 368.527 365.945, 382.034 373.143 C 391.103 377.976, 394.846 379.506, 395.769 378.755 C 396.645 378.043, 399.278 378.101, 404.269 378.941 C 415.811 380.885, 425.833 377.510, 433.103 369.230 C 437.626 364.078, 439.668 358.853, 442.024 346.398 C 444.726 332.118, 451.430 308.228, 455.092 299.832 C 458.431 292.177, 458.725 287.922, 456.248 283.085 C 453.143 277.018, 449.657 276, 432 276 C 418.754 276, 415.956 276.274, 412.984 277.866 M 171.713 288.396 C 163.491 290.652, 156.148 298.023, 153.935 306.240 C 152.640 311.051, 153.488 320.080, 155.636 324.347 C 157.887 328.816, 162.831 333.813, 167.500 336.338 C 171.037 338.250, 173.062 338.500, 185 338.500 C 198.128 338.500, 198.649 338.417, 203.923 335.500 C 206.905 333.850, 210.594 330.778, 212.120 328.673 C 215.045 324.638, 226 297.993, 226 294.913 C 226 293.922, 224.915 291.849, 223.588 290.306 L 221.177 287.500 198.838 287.291 C 182.908 287.142, 175.127 287.459, 171.713 288.396 M 288.831 288.530 C 287.316 289.352, 285.667 291.480, 285.016 293.451 C 283.957 296.661, 284.336 298.100, 290.048 312.540 C 296.842 329.718, 299.628 333.584, 307.911 337.330 C 313.965 340.068, 334.370 340.373, 340.140 337.811 C 345.139 335.590, 351.743 329.425, 354.128 324.750 C 361.078 311.125, 353.417 292.874, 338.941 288.575 C 331.572 286.387, 292.842 286.351, 288.831 288.530 M 173.943 292.544 C 167.820 294.431, 162.365 300.032, 160.485 306.363 C 158.644 312.562, 158.644 313.438, 160.485 319.637 C 163.547 329.948, 174.707 336.548, 184.838 334.038 C 192.096 332.240, 196.809 328.607, 199.566 322.686 C 205.569 309.793, 199.115 295.755, 185.500 292.088 C 180.552 290.756, 179.626 290.792, 173.943 292.544 M 322.943 292.544 C 315.134 294.950, 308 304.477, 308 312.497 C 308 317.425, 311.090 324.757, 314.680 328.347 C 324.859 338.526, 342.006 335.655, 348.467 322.691 C 354.727 310.127, 348.176 295.772, 334.500 292.088 C 329.552 290.756, 328.626 290.792, 322.943 292.544 M 247.375 319.621 C 242.564 321.327, 236.886 326.659, 234.351 331.850 C 229.323 342.148, 234.676 357.161, 245.342 362.677 C 249.396 364.773, 257.721 365.431, 262.807 364.056 C 271.897 361.600, 279.314 351.694, 279.321 342 C 279.333 325.104, 263.396 313.939, 247.375 319.621 M 251.791 325.957 C 241.667 329.126, 237.084 340.040, 242.118 348.996 C 249.888 362.822, 272 357.319, 272 341.559 C 272 331.392, 261.162 323.025, 251.791 325.957 M 197.684 359.489 C 190.178 362.087, 186.512 367.574, 187.238 375.123 C 188.654 389.863, 206.219 393.963, 215.381 381.692 C 218.036 378.136, 218.066 370.617, 215.442 366.161 C 211.816 360.002, 204.328 357.188, 197.684 359.489 M 305.365 358.977 C 294.424 361.501, 289.680 374.712, 296.713 383.071 C 303.450 391.077, 315.315 390.976, 321.101 382.863 C 324.337 378.327, 324.485 369.468, 321.395 365.323 C 317.584 360.210, 311.118 357.651, 305.365 358.977 M 194.923 365.923 C 192.530 368.316, 192 369.690, 192 373.500 C 192 383.142, 202.003 387.543, 209.234 381.082 C 212.038 378.577, 212.500 377.504, 212.500 373.500 C 212.500 369.496, 212.038 368.423, 209.234 365.918 C 204.674 361.843, 199.001 361.845, 194.923 365.923 M 301.672 365.601 C 298.430 368.843, 297.638 371.255, 298.429 375.475 C 299.999 383.841, 310.105 387.049, 316.077 381.077 C 321.116 376.038, 319.708 367.386, 313.316 364.117 C 309.439 362.134, 304.510 362.763, 301.672 365.601" stroke="none" fill="#2b7fff" fill-rule="evenodd"/></svg>