<svg width="17" height="16" viewBox="0 0 17 16" fill="none" xmlns="http://www.w3.org/2000/svg">
<g clip-path="url(#clip0_788_23088)">
<path fill-rule="evenodd" clip-rule="evenodd" d="M15.4163 3.97319L15.4011 3.95565C13.8192 2.12864 11.2904 1 8.50879 1C3.9993 1 0 4.01611 0 8.14168C0 10.2441 1.08617 12.1027 2.71575 13.3778C2.69319 13.4615 2.6699 13.5475 2.64693 13.6324C2.62673 13.707 2.60677 13.7808 2.58778 13.8512C2.55412 13.976 2.52323 14.0912 2.50057 14.1782C2.48941 14.221 2.47894 14.262 2.47081 14.2958C2.46895 14.3035 2.46681 14.3125 2.46458 14.3222C2.42475 14.4569 2.40272 14.5965 2.39928 14.7375L2.39922 14.7399C2.39167 15.0828 2.52761 15.4099 2.76885 15.6462C3.00392 15.8765 3.31848 16.0013 3.6414 16C3.88758 16.0012 4.1293 15.9266 4.33253 15.7852L5.85394 14.9112C6.71254 15.1485 7.60033 15.2681 8.49221 15.2667C12.9823 15.2663 17 12.2516 17 8.12505L17 8.11836C16.9927 7.03539 16.7063 5.97493 16.1712 5.03499" fill="white"/>
<path d="M6.45774 10.223C6.38781 10.2579 6.31027 10.2754 6.23185 10.2742C6.04987 10.2745 5.88262 10.176 5.79733 10.0183L5.7625 9.95005L4.38944 7.0157C4.37526 6.98346 4.36928 6.94832 4.37203 6.91331C4.3704 6.8495 4.39551 6.78783 4.4415 6.74269C4.48748 6.69756 4.55032 6.67291 4.61533 6.67451C4.6715 6.67578 4.72599 6.69358 4.77173 6.72562L6.38825 7.8516C6.51414 7.92678 6.65803 7.96799 6.80536 7.97108C6.8948 7.97061 6.98331 7.95325 7.06607 7.91996L14.6451 4.61024C13.2713 3.02359 11.0292 2 8.50879 2C4.35462 2 1 4.74666 1 8.14168C1 9.98423 2.00819 11.6562 3.58989 12.7828C3.7755 12.899 3.84899 13.1294 3.76401 13.3288C3.64228 13.7894 3.43381 14.5407 3.43381 14.5742C3.41229 14.6346 3.40054 14.6979 3.39898 14.7619C3.39758 14.8255 3.42275 14.8869 3.46864 14.9319C3.51453 14.9768 3.57715 15.0014 3.64197 15C3.6933 15.0013 3.74316 14.9829 3.78095 14.9488L5.41488 14.0102C5.53549 13.9374 5.67312 13.8963 5.81458 13.8907C5.89095 13.8938 5.96672 13.9052 6.04047 13.9249C6.83661 14.1529 7.66188 14.268 8.49121 14.2667C12.628 14.2667 16 11.5201 16 8.12505C15.9932 7.11588 15.6982 6.1288 15.1484 5.27601L6.50998 10.189L6.45774 10.223Z" fill="#1AAD19"/>
</g>
<defs>
<clipPath id="clip0_788_23088">
<rect width="17" height="16" fill="white"/>
</clipPath>
</defs>
</svg>
